<svg xmlns="http://www.w3.org/2000/svg" width="316" height="46" fill="none"><path fill="#ffffff" d="M160.527 15.231c0-7.372-6.052-13.306-13.303-13.306h-30.919c-7.43 0-13.302 5.934-13.302 13.306v16.243c0 1.618-1.318 2.997-2.996 2.997s-2.936-1.379-2.936-2.997V15.23c0-7.372-5.992-13.306-13.302-13.306h-7.011c-7.31 0-13.302 5.934-13.302 13.306v16.243c0 1.618-1.259 2.997-2.937 2.997-1.677 0-2.995-1.379-2.995-2.997V15.23c0-7.372-5.992-13.306-13.303-13.306H13.242C5.932 1.925 0 7.86 0 15.231V44.72h13.782V28.417h20.433c2.816 0 5.093-2.218 5.093-5.095 0-2.876-2.277-5.154-5.093-5.154H13.782v-2.937c0-1.678 1.318-3.057 2.996-3.057h24.028c1.558 0 2.936 1.379 2.936 3.057v16.243c0 7.312 5.932 13.246 13.302 13.246h7.01c7.311 0 13.183-5.934 13.183-13.246V15.23c0-1.678 1.379-3.057 2.996-3.057a3.07 3.07 0 0 1 3.056 3.057v16.243c0 7.312 5.873 13.246 13.183 13.246h7.01c7.371 0 13.303-5.934 13.303-13.246V15.23c0-1.678 1.258-3.057 2.936-3.057h24.028c1.618 0 2.996 1.379 2.996 3.057 0 1.558-1.378 2.937-2.996 2.937h-17.437c-2.816 0-5.093 2.278-5.093 5.155 0 2.877 2.277 5.094 5.093 5.094h17.437c1.618 0 2.996 1.379 2.996 3.057 0 1.618-1.378 2.997-2.996 2.997h-17.437a5.09 5.09 0 0 0-5.093 5.094c0 2.877 2.277 5.155 5.093 5.155h20.912c7.251 0 13.303-5.934 13.303-13.246 0-3.117-1.079-5.874-2.877-8.151 1.798-2.278 2.877-5.035 2.877-8.092ZM193.596 1.925h-28.522V44.72h8.928V26.979h17.017v-7.193h-17.017V9.716h19.594v-7.79ZM227.695 1.925h-30.379V44.72h30.799v-7.792h-21.871V26.26h19.654v-7.192h-19.654v-9.35h21.451V1.925ZM238.185 30.515h-8.629c-.18 10.609 8.269 15.164 17.317 15.164 11.026 0 16.898-5.754 16.898-13.666 0-9.59-9.048-11.807-12.104-12.466-10.127-2.758-12.104-3.117-12.104-6.474 0-3.596 3.296-4.854 6.172-4.854 4.314 0 7.729 1.378 8.029 6.473h8.629c0-9.89-7.85-13.786-16.299-13.786-7.37 0-15.16 4.136-15.16 12.946 0 7.912 6.112 10.61 12.104 12.168 5.932 1.738 12.044 2.457 12.044 7.072 0 4.376-4.733 5.334-7.909 5.334-4.674 0-8.988-2.217-8.988-7.911ZM264.065 9.717h12.224V44.72h8.928V9.717h12.164V1.925h-33.316v7.792ZM300.202 10.196h4.853c-.119-2.097.42-4.375 2.637-4.375 1.618 0 2.636.84 2.636 2.338 0 1.498-2.037 2.757-4.014 4.195-3.536 2.577-6.831 4.735-6.592 9.89h15.7v-4.616h-8.809c.959-.898 2.157-1.678 3.296-2.337 2.517-1.618 5.393-3.536 5.393-7.432 0-4.136-3.476-6.653-7.43-6.653-5.213 0-8.09 4.016-7.67 8.99Zm10.366 27.99c0 1.56-1.019 2.278-2.696 2.278-2.277 0-3.056-1.498-2.936-3.776h-4.974c-.419 5.335 3.056 8.451 7.97 8.451 4.074 0 8.029-2.457 8.029-7.072 0-1.858-.959-3.536-2.457-4.435a5.26 5.26 0 0 0 1.738-3.896c0-4.016-3.955-6.054-7.37-6.054-4.674 0-7.61 3.417-7.49 8.092h5.033c-.18-2.218.539-3.417 2.517-3.417 1.378 0 2.217.6 2.217 1.798 0 1.798-2.337 1.918-4.195 1.559v4.375c2.157 0 4.614-.36 4.614 2.098Z"/></svg>