<svg width="32" height="32" viewBox="0 0 32 32" fill="none" xmlns="http://www.w3.org/2000/svg">
<path d="M24.3974 3.73112L23 3L23.6638 4.06344L24.7467 4.19637L25.9345 5.16012L25.2707 5.55891L26.5633 6.62236L27.1921 10.6435L27.7511 11.2417L27.6114 12.1057L29.0437 14L30.3712 13.8671L30.5808 12.9366L31 13.2689L30.7904 12.1057L30.1616 10.3112L29.4978 8.94864L28.2052 7.02115L26.9476 5.65861L25.7249 4.59517L24.3974 3.73112Z" fill="#FAF5E9"/>
<path d="M7.02688 3.48148L4.24194 5.81482L3 8.03704L3.33871 10.8148L4.24194 12.4815L6.23656 14.1852L7.02688 13.8889L8.11828 14.5556L8.60753 15.4074L10.9785 16.4815V20.2222L12.2957 22.2222L13.9516 23.1852L14.4032 24.6667L14.1022 29.5185L14.7043 30.6667L16.3226 31L15.5699 30.5185V29.7037L16.0215 28.2963L17.4892 28.037L19.7849 26.2222L20.3871 24.5185L21.8548 24.2593L23.0968 21.1852L24 19.9259L22.1935 18.5556L19.9355 17.7778L18.8817 16.1111L16.8495 16L11.9946 14.4444L10.4516 15.2963L9.51075 15L9.62366 13.8889L8.60753 12.7037L6.68817 13L6.23656 11.7407L7.36559 10.0741L9.8871 9.40741L10.8656 10.6667V9.11111L14.328 5L16.3226 5.59259L17.1882 4.88889L15.9462 4.77778V4.14815L14.2903 2.51852L14.5538 1.74074L13.7258 1L9.32258 2.2963L7.02688 3.48148Z" fill="#FAF5E9"/>
<rect x="0.7" y="0.7" width="30.6" height="30.6" rx="15.3" stroke="#FAF5E9" stroke-width="1.4"/>
</svg>
