<svg width="48" height="27" viewBox="0 0 48 27" fill="none" xmlns="http://www.w3.org/2000/svg">
<path d="M7.37882 27H15.6612V26.46H15.5106C14.72 26.46 13.4776 25.8043 11.8965 24.9557L2.48471 19.98C0.90353 19.1314 0.527059 18.0129 0.527059 15.5443V6.24857L10.6165 11.5714H21.9106V25.0329C20.9318 26.2286 20.4424 26.46 19.6894 26.46H19.5388V27H28.4612V26.46H28.3106C27.5576 26.46 27.0682 26.2286 26.0518 24.9943V11.5714H37.3835L47.4729 6.24857V15.5443C47.4729 18.0129 47.0965 19.1314 45.5153 19.98L36.1035 24.9557C34.5224 25.8043 33.28 26.46 32.4894 26.46H32.3388V27H40.6212L48 23.1043V0H47.4729V0.270001C47.4729 1.31143 46.8706 2.16 45.5153 2.85429L33.0918 9.41143C30.7953 10.6457 30.0047 11.0314 28.4988 11.0314H19.5012C17.9953 11.0314 17.2047 10.6457 14.9082 9.41143L2.48471 2.85429C1.12941 2.16 0.527059 1.31143 0.527059 0.270001V0H0V23.1043L7.37882 27Z" fill="#FAF5E9"/>
</svg>
