<svg xmlns="http://www.w3.org/2000/svg" width="258" height="69" fill="none"><path fill="#fff" d="M257.52 21.768c0-11.808-9.696-21.312-21.312-21.312h-49.536c-11.904 0-21.312 9.504-21.312 21.312v26.016c0 2.592-2.112 4.8-4.8 4.8-2.688 0-4.704-2.208-4.704-4.8V21.768c0-11.808-9.6-21.312-21.312-21.312h-11.232C111.6.456 102 9.96 102 21.768v26.016c0 2.592-2.016 4.8-4.704 4.8-2.688 0-4.8-2.208-4.8-4.8V21.768c0-11.808-9.6-21.312-21.312-21.312H21.552C9.84.456.336 9.96.336 21.768V69h22.08V42.888h32.736c4.512 0 8.16-3.552 8.16-8.16 0-4.608-3.648-8.256-8.16-8.256H22.416v-4.704c0-2.688 2.112-4.896 4.8-4.896h38.496c2.496 0 4.704 2.208 4.704 4.896v26.016C70.416 59.496 79.92 69 91.728 69h11.232c11.712 0 21.12-9.504 21.12-21.216V21.768c0-2.688 2.208-4.896 4.8-4.896 2.688 0 4.896 2.208 4.896 4.896v26.016c0 11.712 9.408 21.216 21.12 21.216h11.232c11.808 0 21.312-9.504 21.312-21.216V21.768c0-2.688 2.016-4.896 4.704-4.896h38.496c2.592 0 4.8 2.208 4.8 4.896 0 2.496-2.208 4.704-4.8 4.704h-27.936c-4.512 0-8.16 3.648-8.16 8.256 0 4.608 3.648 8.16 8.16 8.16h27.936c2.592 0 4.8 2.208 4.8 4.896 0 2.592-2.208 4.8-4.8 4.8h-27.936a8.153 8.153 0 0 0-8.16 8.16c0 4.608 3.648 8.256 8.16 8.256h33.504c11.616 0 21.312-9.504 21.312-21.216 0-4.992-1.728-9.408-4.608-13.056 2.88-3.648 4.608-8.064 4.608-12.96Z"/></svg>